<mxfile host="app.diagrams.net" modified="2020-11-02T13:30:40.774Z" agent="5.0 (Windows NT 10.0; Win64; x64) AppleWebKit/537.36 (KHTML, like Gecko) Chrome/86.0.4240.75 Safari/537.36" etag="n2s-VaBMisURSkHFv0tg" version="13.8.8" type="github">
  <diagram name="Page-1" id="74e2e168-ea6b-b213-b513-2b3c1d86103e">
    <mxGraphModel dx="1136" dy="780" grid="1" gridSize="10" guides="1" tooltips="1" connect="1" arrows="1" fold="1" page="1" pageScale="1" pageWidth="1100" pageHeight="850" background="#ffffff" math="0" shadow="0">
      <root>
        <mxCell id="0" />
        <mxCell id="1" parent="0" />
        <mxCell id="77e6c97f196da883-1" value="调薪流程" style="swimlane;html=1;childLayout=stackLayout;startSize=20;rounded=0;shadow=0;labelBackgroundColor=none;strokeWidth=1;fontFamily=Verdana;fontSize=8;align=center;" parent="1" vertex="1">
          <mxGeometry x="118" y="40" width="640" height="750" as="geometry" />
        </mxCell>
        <mxCell id="77e6c97f196da883-2" value="陆灿" style="swimlane;html=1;startSize=20;" parent="77e6c97f196da883-1" vertex="1">
          <mxGeometry y="20" width="160" height="730" as="geometry" />
        </mxCell>
        <mxCell id="E7YNyhzx7uOiuGSzpjAR-1" value="开始" style="ellipse;whiteSpace=wrap;html=1;" vertex="1" parent="77e6c97f196da883-2">
          <mxGeometry x="30" y="60" width="90" height="70" as="geometry" />
        </mxCell>
        <mxCell id="77e6c97f196da883-11" value="创建调薪模板" style="rounded=1;whiteSpace=wrap;html=1;shadow=0;labelBackgroundColor=none;strokeWidth=1;fontFamily=Verdana;fontSize=8;align=center;" parent="77e6c97f196da883-2" vertex="1">
          <mxGeometry x="25" y="180" width="100" height="60" as="geometry" />
        </mxCell>
        <mxCell id="77e6c97f196da883-26" style="edgeStyle=orthogonalEdgeStyle;rounded=1;html=1;labelBackgroundColor=none;startArrow=none;startFill=0;startSize=5;endArrow=classicThin;endFill=1;endSize=5;jettySize=auto;orthogonalLoop=1;strokeWidth=1;fontFamily=Verdana;fontSize=8;exitX=0.5;exitY=1;exitDx=0;exitDy=0;" parent="77e6c97f196da883-2" source="E7YNyhzx7uOiuGSzpjAR-1" target="77e6c97f196da883-11" edge="1">
          <mxGeometry relative="1" as="geometry">
            <mxPoint x="120" y="95" as="sourcePoint" />
          </mxGeometry>
        </mxCell>
        <mxCell id="E7YNyhzx7uOiuGSzpjAR-6" value="&amp;nbsp;创新调薪批次 ，确定适用的调薪批次模板" style="rounded=1;whiteSpace=wrap;html=1;shadow=0;labelBackgroundColor=none;strokeWidth=1;fontFamily=Verdana;fontSize=8;align=center;" vertex="1" parent="77e6c97f196da883-2">
          <mxGeometry x="25" y="377" width="100" height="60" as="geometry" />
        </mxCell>
        <mxCell id="77e6c97f196da883-3" value="部门主管" style="swimlane;html=1;startSize=20;" parent="77e6c97f196da883-1" vertex="1">
          <mxGeometry x="160" y="20" width="160" height="730" as="geometry" />
        </mxCell>
        <mxCell id="E7YNyhzx7uOiuGSzpjAR-12" value="各部门审批调薪&amp;nbsp;" style="rounded=1;whiteSpace=wrap;html=1;shadow=0;labelBackgroundColor=none;strokeWidth=1;fontFamily=Verdana;fontSize=8;align=center;" vertex="1" parent="77e6c97f196da883-3">
          <mxGeometry x="30" y="140" width="100" height="60" as="geometry" />
        </mxCell>
        <mxCell id="77e6c97f196da883-4" value="xw、hcx" style="swimlane;html=1;startSize=20;" parent="77e6c97f196da883-1" vertex="1">
          <mxGeometry x="320" y="20" width="160" height="730" as="geometry" />
        </mxCell>
        <mxCell id="E7YNyhzx7uOiuGSzpjAR-14" value="各部门审批调薪&amp;nbsp;" style="rounded=1;whiteSpace=wrap;html=1;shadow=0;labelBackgroundColor=none;strokeWidth=1;fontFamily=Verdana;fontSize=8;align=center;" vertex="1" parent="77e6c97f196da883-4">
          <mxGeometry x="30" y="140" width="100" height="60" as="geometry" />
        </mxCell>
        <mxCell id="E7YNyhzx7uOiuGSzpjAR-15" style="edgeStyle=orthogonalEdgeStyle;rounded=0;orthogonalLoop=1;jettySize=auto;html=1;exitX=0.5;exitY=1;exitDx=0;exitDy=0;entryX=0.5;entryY=0;entryDx=0;entryDy=0;" edge="1" parent="77e6c97f196da883-1" source="E7YNyhzx7uOiuGSzpjAR-12" target="E7YNyhzx7uOiuGSzpjAR-14">
          <mxGeometry relative="1" as="geometry">
            <Array as="points">
              <mxPoint x="240" y="240" />
              <mxPoint x="332" y="240" />
              <mxPoint x="332" y="140" />
              <mxPoint x="400" y="140" />
            </Array>
          </mxGeometry>
        </mxCell>
        <mxCell id="E7YNyhzx7uOiuGSzpjAR-16" value="HRM" style="swimlane;html=1;startSize=20;" vertex="1" parent="77e6c97f196da883-1">
          <mxGeometry x="480" y="20" width="160" height="730" as="geometry" />
        </mxCell>
        <mxCell id="E7YNyhzx7uOiuGSzpjAR-20" style="edgeStyle=orthogonalEdgeStyle;rounded=0;orthogonalLoop=1;jettySize=auto;html=1;exitX=0.5;exitY=1;exitDx=0;exitDy=0;entryX=0.5;entryY=0;entryDx=0;entryDy=0;" edge="1" parent="E7YNyhzx7uOiuGSzpjAR-16" source="E7YNyhzx7uOiuGSzpjAR-17" target="E7YNyhzx7uOiuGSzpjAR-19">
          <mxGeometry relative="1" as="geometry" />
        </mxCell>
        <mxCell id="E7YNyhzx7uOiuGSzpjAR-17" value="数据存储" style="rounded=1;whiteSpace=wrap;html=1;shadow=0;labelBackgroundColor=none;strokeWidth=1;fontFamily=Verdana;fontSize=8;align=center;" vertex="1" parent="E7YNyhzx7uOiuGSzpjAR-16">
          <mxGeometry x="30" y="140" width="100" height="60" as="geometry" />
        </mxCell>
        <mxCell id="E7YNyhzx7uOiuGSzpjAR-19" value="结束" style="ellipse;whiteSpace=wrap;html=1;" vertex="1" parent="E7YNyhzx7uOiuGSzpjAR-16">
          <mxGeometry x="20" y="330" width="120" height="80" as="geometry" />
        </mxCell>
        <mxCell id="E7YNyhzx7uOiuGSzpjAR-18" style="edgeStyle=orthogonalEdgeStyle;rounded=0;orthogonalLoop=1;jettySize=auto;html=1;exitX=0.5;exitY=1;exitDx=0;exitDy=0;entryX=0.5;entryY=0;entryDx=0;entryDy=0;" edge="1" parent="77e6c97f196da883-1" source="E7YNyhzx7uOiuGSzpjAR-14" target="E7YNyhzx7uOiuGSzpjAR-17">
          <mxGeometry relative="1" as="geometry">
            <Array as="points">
              <mxPoint x="400" y="240" />
              <mxPoint x="492" y="240" />
              <mxPoint x="492" y="140" />
              <mxPoint x="560" y="140" />
            </Array>
          </mxGeometry>
        </mxCell>
        <mxCell id="E7YNyhzx7uOiuGSzpjAR-7" value="" style="edgeStyle=orthogonalEdgeStyle;rounded=0;orthogonalLoop=1;jettySize=auto;html=1;" edge="1" parent="1" source="E7YNyhzx7uOiuGSzpjAR-4" target="E7YNyhzx7uOiuGSzpjAR-6">
          <mxGeometry relative="1" as="geometry" />
        </mxCell>
        <mxCell id="E7YNyhzx7uOiuGSzpjAR-4" value="更新提醒调薪比例控制" style="rounded=1;whiteSpace=wrap;html=1;shadow=0;labelBackgroundColor=none;strokeWidth=1;fontFamily=Verdana;fontSize=8;align=center;" vertex="1" parent="1">
          <mxGeometry x="143" y="335" width="100" height="60" as="geometry" />
        </mxCell>
        <mxCell id="E7YNyhzx7uOiuGSzpjAR-5" value="" style="edgeStyle=orthogonalEdgeStyle;rounded=0;orthogonalLoop=1;jettySize=auto;html=1;" edge="1" parent="1" source="77e6c97f196da883-11" target="E7YNyhzx7uOiuGSzpjAR-4">
          <mxGeometry relative="1" as="geometry" />
        </mxCell>
        <mxCell id="E7YNyhzx7uOiuGSzpjAR-11" value="" style="edgeStyle=orthogonalEdgeStyle;rounded=0;orthogonalLoop=1;jettySize=auto;html=1;" edge="1" parent="1" source="E7YNyhzx7uOiuGSzpjAR-8" target="E7YNyhzx7uOiuGSzpjAR-10">
          <mxGeometry relative="1" as="geometry" />
        </mxCell>
        <mxCell id="E7YNyhzx7uOiuGSzpjAR-8" value="同步或添加调薪人员名单" style="rounded=1;whiteSpace=wrap;html=1;shadow=0;labelBackgroundColor=none;strokeWidth=1;fontFamily=Verdana;fontSize=8;align=center;" vertex="1" parent="1">
          <mxGeometry x="143" y="536" width="100" height="60" as="geometry" />
        </mxCell>
        <mxCell id="E7YNyhzx7uOiuGSzpjAR-9" value="" style="edgeStyle=orthogonalEdgeStyle;rounded=0;orthogonalLoop=1;jettySize=auto;html=1;" edge="1" parent="1" source="E7YNyhzx7uOiuGSzpjAR-6" target="E7YNyhzx7uOiuGSzpjAR-8">
          <mxGeometry relative="1" as="geometry" />
        </mxCell>
        <mxCell id="E7YNyhzx7uOiuGSzpjAR-13" style="edgeStyle=orthogonalEdgeStyle;rounded=0;orthogonalLoop=1;jettySize=auto;html=1;exitX=1;exitY=0.5;exitDx=0;exitDy=0;entryX=0.5;entryY=0;entryDx=0;entryDy=0;" edge="1" parent="1" source="E7YNyhzx7uOiuGSzpjAR-10" target="E7YNyhzx7uOiuGSzpjAR-12">
          <mxGeometry relative="1" as="geometry">
            <Array as="points">
              <mxPoint x="290" y="671" />
              <mxPoint x="290" y="180" />
              <mxPoint x="358" y="180" />
            </Array>
          </mxGeometry>
        </mxCell>
        <mxCell id="E7YNyhzx7uOiuGSzpjAR-10" value="发起调薪" style="rounded=1;whiteSpace=wrap;html=1;shadow=0;labelBackgroundColor=none;strokeWidth=1;fontFamily=Verdana;fontSize=8;align=center;" vertex="1" parent="1">
          <mxGeometry x="143" y="641" width="100" height="60" as="geometry" />
        </mxCell>
      </root>
    </mxGraphModel>
  </diagram>
</mxfile>
